SplineFontDB: 3.2
FontName: UnicodiaDevaFixup-Regular
FullName: UnicodiaDevaFixup Regular
FamilyName: UnicodiaDevaFixup
Weight: Regular
Copyright: Copyright 2022 The Noto Project Authors (https://github.com/notofonts/devanagari)
Version: 2.005; ttfautohint (v1.8.4.7-5d5b)
ItalicAngle: 0
UnderlinePosition: -125
UnderlineWidth: 50
Ascent: 800
Descent: 200
InvalidEm: 0
sfntRevision: 0x00020148
LayerCount: 2
Layer: 0 1 "+BBcEMAQ0BD0EOAQ5 +BD8EOwQwBD0A" 1
Layer: 1 1 "+BB8ENQRABDUENAQ9BDgEOQAA +BD8EOwQwBD0A" 0
XUID: [1021 59 1751208496 25026]
StyleMap: 0x0040
FSType: 0
OS2Version: 4
OS2_WeightWidthSlopeOnly: 1
OS2_UseTypoMetrics: 1
CreationTime: 1555073790
ModificationTime: 1716883537
PfmFamily: 17
TTFWeight: 400
TTFWidth: 5
LineGap: 0
VLineGap: 0
Panose: 2 2 5 2 6 5 5 2 2 4
OS2TypoAscent: 930
OS2TypoAOffset: 0
OS2TypoDescent: -625
OS2TypoDOffset: 0
OS2TypoLinegap: 0
OS2WinAscent: 1407
OS2WinAOffset: 0
OS2WinDescent: 792
OS2WinDOffset: 0
HheadAscent: 930
HheadAOffset: 0
HheadDescent: -625
HheadDOffset: 0
OS2SubXSize: 650
OS2SubYSize: 600
OS2SubXOff: 0
OS2SubYOff: 75
OS2SupXSize: 650
OS2SupYSize: 600
OS2SupXOff: 0
OS2SupYOff: 350
OS2StrikeYSize: 50
OS2StrikeYPos: 374
OS2CapHeight: 715
OS2XHeight: 623
OS2Vendor: 'GOOG'
OS2CodePages: 00000001.00000000
OS2UnicodeRanges: 80008023.00002046.00000000.00000000
Lookup: 260 0 0 "My ABVM" { "My ABVM-1"  } ['abvm' ('DFLT' <'dflt' > 'dev2' <'MAR ' 'NEP ' 'SAN ' 'SAT ' 'dflt' > 'latn' <'dflt' > ) ]
MarkAttachClasses: 1
MarkAttachSets: 11
"MarkSet-0" 68 uni0902 uni0901 uni0930094D uni0930094D0902 uni0930094D0901 NullMark
"MarkSet-1" 75 uni0945 uni093A ayMatradeva uni0955 uni0901 uni0900 uni09450901 uni093A0902

StartChar: .notdef
Encoding: 1114112 -1 0
Width: 596
GlyphClass: 1
Flags: W
LayerCount: 2
Fore
SplineSet
93 0 m 1,0,-1
 93 714 l 1,1,-1
 503 714 l 1,2,-1
 503 0 l 1,3,-1
 93 0 l 1,0,-1
144 51 m 1,4,-1
 453 51 l 1,5,-1
 453 663 l 1,6,-1
 144 663 l 1,7,-1
 144 51 l 1,4,-1
EndSplineSet
EndChar

StartChar: uni1CD0
Encoding: 7376 7376 4
Width: 0
GlyphClass: 4
Flags: W
AnchorPoint: "Vedic letter" 0 800 mark 0
LayerCount: 2
Fore
SplineSet
-308 991 m 1,0,-1
 -377 1041 l 1,1,-1
 -191 1263 l 1,2,-1
 8 1024 l 1,3,-1
 -21 995 l 1,4,-1
 -163 1162 l 1,5,-1
 -308 991 l 1,0,-1
EndSplineSet
EndChar

StartChar: uni1CD1
Encoding: 7377 7377 5
Width: 0
GlyphClass: 4
Flags: W
AnchorPoint: "Vedic letter" 0 800 mark 0
LayerCount: 2
Fore
SplineSet
-308 991 m 1,0,-1
 -377 1041 l 1,1,-1
 -191 1263 l 1,2,-1
 8 1024 l 1,3,-1
 -21 995 l 1,4,-1
 -163 1162 l 1,5,-1
 -308 991 l 1,0,-1
-139 919 m 1,6,-1
 -192 938 l 1,7,-1
 -192 1105 l 1,8,-1
 -183 1105 l 1,9,-1
 -129 1085 l 1,10,-1
 -129 919 l 1,11,-1
 -139 919 l 1,6,-1
EndSplineSet
EndChar

StartChar: uni1CD2
Encoding: 7378 7378 6
Width: 0
GlyphClass: 4
Flags: W
AnchorPoint: "Vedic letter" 0 800 mark 0
LayerCount: 2
Fore
SplineSet
-322 1084 m 1,0,-1
 -361 1142 l 1,1,-1
 -361 1152 l 1,2,-1
 -37 1152 l 1,3,-1
 3 1094 l 1,4,-1
 3 1084 l 1,5,-1
 -322 1084 l 1,0,-1
EndSplineSet
EndChar

StartChar: uni1CF4
Encoding: 7412 7412 7
Width: 0
GlyphClass: 4
Flags: W
AnchorPoint: "Vedic letter" 0 800 mark 0
LayerCount: 2
Fore
SplineSet
-235 1003 m 0,0,1
 -312 1003 -312 1003 -360 1051.5 c 128,-1,2
 -408 1100 -408 1100 -424 1185 c 1,3,-1
 -384 1196 l 1,4,5
 -373 1137 -373 1137 -338 1102.5 c 128,-1,6
 -303 1068 -303 1068 -248 1068 c 0,7,8
 -198 1068 -198 1068 -164.5 1097.5 c 128,-1,9
 -131 1127 -131 1127 -124 1196 c 1,10,-1
 -54 1177 l 1,11,12
 -66 1089 -66 1089 -115.5 1046 c 128,-1,13
 -165 1003 -165 1003 -235 1003 c 0,0,1
EndSplineSet
EndChar

StartChar: uniA8E0
Encoding: 43232 43232 8
Width: 0
GlyphClass: 4
Flags: W
AnchorPoint: "Vedic letter" 0 800 mark 0
LayerCount: 2
Fore
SplineSet
-110 1028 m 0,0,1
 -130 1028 -130 1028 -146.5 1037.5 c 128,-1,2
 -163 1047 -163 1047 -177 1061 c 0,3,4
 -190 1075 -190 1075 -200 1091.5 c 128,-1,5
 -210 1108 -210 1108 -210 1128 c 0,6,7
 -210 1172 -210 1172 -181.5 1200.5 c 128,-1,8
 -153 1229 -153 1229 -110 1229 c 0,9,10
 -88 1229 -88 1229 -71.5 1219.5 c 128,-1,11
 -55 1210 -55 1210 -41 1196 c 0,12,13
 -27 1183 -27 1183 -18.5 1166 c 128,-1,14
 -10 1149 -10 1149 -10 1128 c 0,15,16
 -10 1085 -10 1085 -38.5 1056.5 c 128,-1,17
 -67 1028 -67 1028 -110 1028 c 0,0,1
-125 1064 m 0,18,19
 -106 1064 -106 1064 -87.5 1075.5 c 128,-1,20
 -69 1087 -69 1087 -57 1105.5 c 128,-1,21
 -45 1124 -45 1124 -45 1144 c 0,22,23
 -45 1167 -45 1167 -59 1179 c 128,-1,24
 -73 1191 -73 1191 -94 1191 c 0,25,26
 -114 1191 -114 1191 -133 1180 c 128,-1,27
 -152 1169 -152 1169 -163.5 1151.5 c 128,-1,28
 -175 1134 -175 1134 -175 1115 c 0,29,30
 -175 1090 -175 1090 -160 1077 c 128,-1,31
 -145 1064 -145 1064 -125 1064 c 0,18,19
EndSplineSet
EndChar

StartChar: uniA8E1
Encoding: 43233 43233 9
Width: 0
GlyphClass: 4
Flags: W
AnchorPoint: "Vedic letter" 0 800 mark 0
LayerCount: 2
Fore
SplineSet
-74 930 m 1,0,-1
 -111 957 l 1,1,2
 -99 971 -99 971 -99 984 c 0,3,4
 -99 1001 -99 1001 -119 1022 c 128,-1,5
 -139 1043 -139 1043 -183 1079 c 1,6,7
 -167 1091 -167 1091 -154 1101.5 c 128,-1,8
 -141 1112 -141 1112 -129 1122 c 1,9,10
 -157 1142 -157 1142 -172.5 1165 c 128,-1,11
 -188 1188 -188 1188 -188 1214 c 0,12,13
 -188 1237 -188 1237 -171.5 1257 c 128,-1,14
 -155 1277 -155 1277 -120 1277 c 0,15,16
 -100 1277 -100 1277 -86 1269 c 128,-1,17
 -72 1261 -72 1261 -60 1248 c 0,18,19
 -46 1233 -46 1233 -39 1219 c 128,-1,20
 -32 1205 -32 1205 -32 1186 c 0,21,22
 -32 1165 -32 1165 -48.5 1142 c 128,-1,23
 -65 1119 -65 1119 -88 1098.5 c 128,-1,24
 -111 1078 -111 1078 -129 1064 c 1,25,26
 -96 1041 -96 1041 -75 1019.5 c 128,-1,27
 -54 998 -54 998 -54 975 c 0,28,29
 -54 961 -54 961 -60 950 c 128,-1,30
 -66 939 -66 939 -74 930 c 1,0,-1
-149 1194 m 0,31,32
 -149 1178 -149 1178 -138.5 1162.5 c 128,-1,33
 -128 1147 -128 1147 -111 1138 c 1,34,35
 -69 1176 -69 1176 -69 1204 c 0,36,37
 -69 1220 -69 1220 -78.5 1229.5 c 128,-1,38
 -88 1239 -88 1239 -105 1239 c 0,39,40
 -125 1239 -125 1239 -137 1226 c 128,-1,41
 -149 1213 -149 1213 -149 1194 c 0,31,32
EndSplineSet
EndChar

StartChar: uniA8E2
Encoding: 43234 43234 10
Width: 0
GlyphClass: 4
Flags: W
AnchorPoint: "Vedic letter" 0 800 mark 0
LayerCount: 2
Fore
SplineSet
-72 958 m 1,0,-1
 -114 1074 l 1,1,2
 -123 1073 -123 1073 -131 1073 c 0,3,4
 -150 1073 -150 1073 -164 1083.5 c 128,-1,5
 -178 1094 -178 1094 -178 1112 c 0,6,7
 -178 1124 -178 1124 -169.5 1133 c 128,-1,8
 -161 1142 -161 1142 -146 1142 c 0,9,10
 -127 1142 -127 1142 -112 1121 c 1,11,12
 -82 1131 -82 1131 -60.5 1150 c 128,-1,13
 -39 1169 -39 1169 -39 1194 c 0,14,15
 -39 1213 -39 1213 -52.5 1225 c 128,-1,16
 -66 1237 -66 1237 -89 1237 c 0,17,18
 -105 1237 -105 1237 -120 1230.5 c 128,-1,19
 -135 1224 -135 1224 -146 1216 c 1,20,-1
 -173 1253 l 1,21,22
 -141 1278 -141 1278 -104 1278 c 0,23,24
 -84 1278 -84 1278 -67 1267.5 c 128,-1,25
 -50 1257 -50 1257 -35 1241 c 0,26,27
 -17 1222 -17 1222 -9.5 1204 c 128,-1,28
 -2 1186 -2 1186 -2 1166 c 0,29,30
 -2 1136 -2 1136 -27.5 1112.5 c 128,-1,31
 -53 1089 -53 1089 -87 1079 c 1,32,-1
 -29 972 l 1,33,-1
 -72 958 l 1,0,-1
EndSplineSet
EndChar

StartChar: uniA8E3
Encoding: 43235 43235 11
Width: 0
GlyphClass: 4
Flags: W
AnchorPoint: "Vedic letter" 0 800 mark 0
LayerCount: 2
Fore
SplineSet
-109 919 m 1,0,-1
 -131 991 l 1,1,2
 -145 993 -145 993 -161.5 998 c 128,-1,3
 -178 1003 -178 1003 -189.5 1013 c 128,-1,4
 -201 1023 -201 1023 -201 1040 c 0,5,6
 -201 1067 -201 1067 -172 1067 c 0,7,8
 -161 1067 -161 1067 -149.5 1060 c 128,-1,9
 -138 1053 -138 1053 -128 1036 c 2,10,-1
 -125 1031 l 1,11,12
 -92 1032 -92 1032 -77 1047 c 128,-1,13
 -62 1062 -62 1062 -62 1082 c 0,14,15
 -62 1109 -62 1109 -89 1131 c 1,16,17
 -104 1125 -104 1125 -119 1121 c 128,-1,18
 -134 1117 -134 1117 -146 1115 c 1,19,-1
 -175 1155 l 1,20,21
 -151 1160 -151 1160 -127 1166.5 c 128,-1,22
 -103 1173 -103 1173 -86.5 1183 c 128,-1,23
 -70 1193 -70 1193 -70 1207 c 0,24,25
 -70 1222 -70 1222 -80 1230 c 128,-1,26
 -90 1238 -90 1238 -107 1238 c 0,27,28
 -121 1238 -121 1238 -138 1233 c 128,-1,29
 -155 1228 -155 1228 -169 1219 c 1,30,-1
 -195 1257 l 1,31,32
 -163 1278 -163 1278 -125 1278 c 0,33,34
 -91 1278 -91 1278 -60 1246 c 0,35,36
 -43 1229 -43 1229 -37 1214 c 128,-1,37
 -31 1199 -31 1199 -31 1188 c 0,38,39
 -31 1173 -31 1173 -40.5 1162 c 128,-1,40
 -50 1151 -50 1151 -64 1142 c 1,41,42
 -53 1134 -53 1134 -46 1126 c 0,43,44
 -33 1113 -33 1113 -26 1098.5 c 128,-1,45
 -19 1084 -19 1084 -19 1067 c 0,46,47
 -19 1035 -19 1035 -44.5 1016 c 128,-1,48
 -70 997 -70 997 -102 992 c 1,49,-1
 -66 933 l 1,50,-1
 -109 919 l 1,0,-1
EndSplineSet
EndChar

StartChar: uniA8E4
Encoding: 43236 43236 12
Width: 0
GlyphClass: 4
Flags: W
AnchorPoint: "Vedic letter" 0 800 mark 0
LayerCount: 2
Fore
SplineSet
-85 977 m 0,0,1
 -98 977 -98 977 -115 980.5 c 128,-1,2
 -132 984 -132 984 -149 994 c 0,3,4
 -180 1014 -180 1014 -190.5 1031 c 128,-1,5
 -201 1048 -201 1048 -201 1067 c 0,6,7
 -201 1089 -201 1089 -188.5 1106.5 c 128,-1,8
 -176 1124 -176 1124 -157 1139 c 1,9,10
 -183 1154 -183 1154 -202.5 1172 c 128,-1,11
 -222 1190 -222 1190 -222 1215 c 0,12,13
 -222 1237 -222 1237 -210 1251 c 128,-1,14
 -198 1265 -198 1265 -183 1273.5 c 128,-1,15
 -168 1282 -168 1282 -161 1285 c 1,16,-1
 -130 1252 l 1,17,18
 -146 1245 -146 1245 -162.5 1232 c 128,-1,19
 -179 1219 -179 1219 -179 1202 c 0,20,21
 -179 1188 -179 1188 -166.5 1177 c 128,-1,22
 -154 1166 -154 1166 -136 1155 c 1,23,24
 -113 1171 -113 1171 -90.5 1184.5 c 128,-1,25
 -68 1198 -68 1198 -53 1212 c 128,-1,26
 -38 1226 -38 1226 -38 1240 c 0,27,28
 -38 1249 -38 1249 -41 1256.5 c 128,-1,29
 -44 1264 -44 1264 -47 1268 c 1,30,-1
 -32 1281 l 1,31,32
 -18 1273 -18 1273 -8 1260 c 128,-1,33
 2 1247 2 1247 2 1229 c 0,34,35
 2 1209 2 1209 -13 1192.5 c 128,-1,36
 -28 1176 -28 1176 -51 1161.5 c 128,-1,37
 -74 1147 -74 1147 -96 1133 c 1,38,39
 -67 1116 -67 1116 -42.5 1094 c 128,-1,40
 -18 1072 -18 1072 -18 1038 c 0,41,42
 -18 1008 -18 1008 -39.5 992.5 c 128,-1,43
 -61 977 -61 977 -85 977 c 0,0,1
-158 1056 m 0,44,45
 -158 1035 -158 1035 -143.5 1023 c 128,-1,46
 -129 1011 -129 1011 -111 1011 c 256,47,48
 -93 1011 -93 1011 -76 1023 c 128,-1,49
 -59 1035 -59 1035 -59 1055 c 0,50,51
 -59 1074 -59 1074 -76.5 1089 c 128,-1,52
 -94 1104 -94 1104 -118 1118 c 1,53,54
 -135 1104 -135 1104 -146.5 1089 c 128,-1,55
 -158 1074 -158 1074 -158 1056 c 0,44,45
EndSplineSet
EndChar

StartChar: uniA8E5
Encoding: 43237 43237 13
Width: 0
GlyphClass: 4
Flags: W
AnchorPoint: "Vedic letter" 0 800 mark 0
LayerCount: 2
Fore
SplineSet
1 946 m 1,0,-1
 -49 1066 l 1,1,2
 -69 1056 -69 1056 -93 1056 c 0,3,4
 -113 1056 -113 1056 -129 1062.5 c 128,-1,5
 -145 1069 -145 1069 -159 1082 c 0,6,7
 -202 1121 -202 1121 -202 1168 c 0,8,9
 -202 1190 -202 1190 -190 1220.5 c 128,-1,10
 -178 1251 -178 1251 -150 1284 c 1,11,-1
 -110 1261 l 1,12,13
 -162 1203 -162 1203 -162 1143 c 0,14,15
 -162 1118 -162 1118 -146 1103.5 c 128,-1,16
 -130 1089 -130 1089 -111 1089 c 0,17,18
 -99 1089 -99 1089 -87 1093 c 128,-1,19
 -75 1097 -75 1097 -67 1106 c 1,20,21
 -75 1125 -75 1125 -75 1137 c 0,22,23
 -75 1153 -75 1153 -66 1162 c 128,-1,24
 -57 1171 -57 1171 -43 1171 c 0,25,26
 -28 1171 -28 1171 -18 1159.5 c 128,-1,27
 -8 1148 -8 1148 -8 1130 c 0,28,29
 -8 1101 -8 1101 -28 1082 c 1,30,-1
 42 967 l 1,31,-1
 1 946 l 1,0,-1
EndSplineSet
EndChar

StartChar: uniA8E6
Encoding: 43238 43238 14
Width: 0
GlyphClass: 4
Flags: W
AnchorPoint: "Vedic letter" 0 800 mark 0
LayerCount: 2
Fore
SplineSet
-30 921 m 1,0,-1
 -58 1003 l 1,1,2
 -75 998 -75 998 -94 998 c 0,3,4
 -140 998 -140 998 -175 1033 c 0,5,6
 -189 1047 -189 1047 -197 1060.5 c 128,-1,7
 -205 1074 -205 1074 -205 1093 c 0,8,9
 -205 1129 -205 1129 -172 1150 c 1,10,11
 -188 1163 -188 1163 -198 1179 c 128,-1,12
 -208 1195 -208 1195 -208 1213 c 0,13,14
 -208 1241 -208 1241 -187.5 1259.5 c 128,-1,15
 -167 1278 -167 1278 -128 1278 c 0,16,17
 -117 1278 -117 1278 -102.5 1276.5 c 128,-1,18
 -88 1275 -88 1275 -75 1272 c 1,19,-1
 -59 1230 l 1,20,21
 -73 1233 -73 1233 -90 1235 c 128,-1,22
 -107 1237 -107 1237 -123 1237 c 0,23,24
 -142 1237 -142 1237 -155.5 1227.5 c 128,-1,25
 -169 1218 -169 1218 -169 1199 c 0,26,27
 -169 1187 -169 1187 -163 1177.5 c 128,-1,28
 -157 1168 -157 1168 -151 1161 c 1,29,30
 -124 1172 -124 1172 -88 1172 c 1,31,-1
 -73 1132 l 1,32,33
 -90 1132 -90 1132 -112 1126.5 c 128,-1,34
 -134 1121 -134 1121 -150 1109 c 128,-1,35
 -166 1097 -166 1097 -166 1075 c 256,36,37
 -166 1053 -166 1053 -151 1042.5 c 128,-1,38
 -136 1032 -136 1032 -119 1032 c 0,39,40
 -92 1032 -92 1032 -73 1045 c 1,41,42
 -76 1054 -76 1054 -76 1062 c 0,43,44
 -76 1095 -76 1095 -44 1095 c 0,45,46
 -30 1095 -30 1095 -18 1083.5 c 128,-1,47
 -6 1072 -6 1072 -6 1054 c 0,48,49
 -6 1041 -6 1041 -13.5 1030.5 c 128,-1,50
 -21 1020 -21 1020 -34 1013 c 1,51,-1
 10 939 l 1,52,-1
 -30 921 l 1,0,-1
EndSplineSet
EndChar

StartChar: uniA8E7
Encoding: 43239 43239 15
Width: 0
GlyphClass: 4
Flags: W
AnchorPoint: "Vedic letter" 0 800 mark 0
LayerCount: 2
Fore
SplineSet
-91 983 m 0,0,1
 -158 983 -158 983 -202 1053.5 c 128,-1,2
 -246 1124 -246 1124 -246 1280 c 1,3,-1
 -222 1285 l 1,4,5
 -216 1186 -216 1186 -198.5 1128.5 c 128,-1,6
 -181 1071 -181 1071 -156.5 1046.5 c 128,-1,7
 -132 1022 -132 1022 -104 1022 c 0,8,9
 -83 1022 -83 1022 -64.5 1040.5 c 128,-1,10
 -46 1059 -46 1059 -39 1095 c 1,11,12
 -65 1096 -65 1096 -91 1106 c 0,13,14
 -119 1117 -119 1117 -140.5 1139.5 c 128,-1,15
 -162 1162 -162 1162 -162 1197 c 0,16,17
 -162 1226 -162 1226 -145.5 1241.5 c 128,-1,18
 -129 1257 -129 1257 -103 1257 c 0,19,20
 -78 1257 -78 1257 -55 1242 c 0,21,22
 -27 1224 -27 1224 -10.5 1188.5 c 128,-1,23
 6 1153 6 1153 6 1115 c 0,24,25
 6 1068 6 1068 -9.5 1039 c 128,-1,26
 -25 1010 -25 1010 -47.5 996.5 c 128,-1,27
 -70 983 -70 983 -91 983 c 0,0,1
-119 1188 m 0,28,29
 -119 1159 -119 1159 -95 1140 c 128,-1,30
 -71 1121 -71 1121 -36 1117 c 1,31,32
 -36 1123 -36 1123 -36 1130 c 0,33,34
 -36 1224 -36 1224 -88 1224 c 0,35,36
 -101 1224 -101 1224 -110 1213.5 c 128,-1,37
 -119 1203 -119 1203 -119 1188 c 0,28,29
EndSplineSet
EndChar

StartChar: uniA8E8
Encoding: 43240 43240 16
Width: 0
GlyphClass: 4
Flags: W
AnchorPoint: "Vedic letter" 0 800 mark 0
LayerCount: 2
Fore
SplineSet
-98 977 m 0,0,1
 -138 977 -138 977 -173 1012 c 0,2,3
 -194 1033 -194 1033 -203 1051 c 128,-1,4
 -212 1069 -212 1069 -212 1088 c 0,5,6
 -212 1122 -212 1122 -172.5 1164.5 c 128,-1,7
 -133 1207 -133 1207 -54 1279 c 1,8,-1
 -18 1247 l 1,9,10
 -97 1174 -97 1174 -133.5 1135 c 128,-1,11
 -170 1096 -170 1096 -170 1064 c 0,12,13
 -170 1042 -170 1042 -155.5 1029 c 128,-1,14
 -141 1016 -141 1016 -116 1016 c 0,15,16
 -93 1016 -93 1016 -68 1031 c 128,-1,17
 -43 1046 -43 1046 -21 1071 c 1,18,-1
 12 1041 l 1,19,20
 -7 1013 -7 1013 -38 995 c 128,-1,21
 -69 977 -69 977 -98 977 c 0,0,1
EndSplineSet
EndChar

StartChar: uniA8E9
Encoding: 43241 43241 17
Width: 0
GlyphClass: 4
Flags: W
AnchorPoint: "Vedic letter" 0 800 mark 0
LayerCount: 2
Fore
SplineSet
-46 949 m 1,0,-1
 -87 976 l 1,1,2
 -74 987 -74 987 -69 996 c 128,-1,3
 -64 1005 -64 1005 -64 1013 c 0,4,5
 -64 1030 -64 1030 -77 1045 c 128,-1,6
 -90 1060 -90 1060 -112 1079 c 0,7,8
 -147 1111 -147 1111 -166.5 1137.5 c 128,-1,9
 -186 1164 -186 1164 -186 1198 c 0,10,11
 -186 1229 -186 1229 -164.5 1253.5 c 128,-1,12
 -143 1278 -143 1278 -107 1278 c 0,13,14
 -67 1278 -67 1278 -40 1250 c 256,15,16
 -13 1222 -13 1222 -13 1191 c 0,17,18
 -13 1158 -13 1158 -42.5 1139 c 128,-1,19
 -72 1120 -72 1120 -107 1115 c 1,20,21
 -100 1107 -100 1107 -91.5 1100 c 128,-1,22
 -83 1093 -83 1093 -75 1086 c 0,23,24
 -52 1067 -52 1067 -34 1048 c 128,-1,25
 -16 1029 -16 1029 -16 1003 c 0,26,27
 -16 991 -16 991 -22.5 978.5 c 128,-1,28
 -29 966 -29 966 -46 949 c 1,0,-1
-142 1183 m 0,29,30
 -142 1165 -142 1165 -133 1147 c 1,31,32
 -98 1151 -98 1151 -74.5 1167.5 c 128,-1,33
 -51 1184 -51 1184 -51 1207 c 0,34,35
 -51 1224 -51 1224 -62 1234.5 c 128,-1,36
 -73 1245 -73 1245 -89 1245 c 0,37,38
 -116 1245 -116 1245 -129 1224.5 c 128,-1,39
 -142 1204 -142 1204 -142 1183 c 0,29,30
EndSplineSet
EndChar

StartChar: uniA8EA
Encoding: 43242 43242 18
Width: 0
GlyphClass: 4
Flags: W
AnchorPoint: "Vedic letter" 0 800 mark 0
LayerCount: 2
Fore
SplineSet
-12 974 m 1,0,-1
 -48 996 l 1,1,-1
 -48 1111 l 1,2,3
 -61 1106 -61 1106 -77 1106 c 0,4,5
 -96 1106 -96 1106 -113 1114 c 1,6,7
 -98 1091 -98 1091 -98 1065 c 0,8,9
 -98 1038 -98 1038 -117 1021.5 c 128,-1,10
 -136 1005 -136 1005 -165 1005 c 0,11,12
 -214 1005 -214 1005 -244 1038 c 128,-1,13
 -274 1071 -274 1071 -296 1126 c 1,14,-1
 -271 1137 l 1,15,16
 -234 1046 -234 1046 -177 1046 c 0,17,18
 -132 1046 -132 1046 -132 1086 c 0,19,20
 -132 1107 -132 1107 -148 1129 c 1,21,22
 -167 1118 -167 1118 -195 1112 c 1,23,-1
 -215 1154 l 1,24,25
 -178 1165 -178 1165 -158 1178.5 c 128,-1,26
 -138 1192 -138 1192 -138 1211 c 0,27,28
 -138 1222 -138 1222 -146 1230 c 128,-1,29
 -154 1238 -154 1238 -171 1238 c 0,30,31
 -186 1238 -186 1238 -200.5 1233.5 c 128,-1,32
 -215 1229 -215 1229 -231 1221 c 1,33,-1
 -253 1264 l 1,34,35
 -238 1270 -238 1270 -222.5 1274 c 128,-1,36
 -207 1278 -207 1278 -189 1278 c 0,37,38
 -150 1278 -150 1278 -127 1250 c 128,-1,39
 -104 1222 -104 1222 -104 1192 c 0,40,41
 -104 1166 -104 1166 -122 1147 c 1,42,43
 -106 1142 -106 1142 -87 1142 c 0,44,45
 -65 1142 -65 1142 -48 1154 c 1,46,-1
 -48 1234 l 1,47,-1
 -82 1234 l 1,48,-1
 -99 1267 l 1,49,-1
 -99 1273 l 1,50,-1
 23 1273 l 1,51,-1
 40 1240 l 1,52,-1
 40 1234 l 1,53,-1
 -6 1234 l 1,54,-1
 -6 974 l 1,55,-1
 -12 974 l 1,0,-1
EndSplineSet
EndChar

StartChar: uniA8EB
Encoding: 43243 43243 19
Width: 0
GlyphClass: 4
Flags: W
AnchorPoint: "Vedic letter" 0 800 mark 0
LayerCount: 2
Fore
SplineSet
-91 987 m 0,0,1
 -140 987 -140 987 -169.5 1021.5 c 128,-1,2
 -199 1056 -199 1056 -222 1120 c 1,3,-1
 -195 1130 l 1,4,5
 -179 1087 -179 1087 -164.5 1066 c 128,-1,6
 -150 1045 -150 1045 -135 1038.5 c 128,-1,7
 -120 1032 -120 1032 -103 1032 c 256,8,9
 -86 1032 -86 1032 -74 1043 c 128,-1,10
 -62 1054 -62 1054 -62 1070 c 0,11,12
 -62 1093 -62 1093 -85 1119 c 1,13,14
 -106 1110 -106 1110 -133 1104 c 1,15,-1
 -153 1146 l 1,16,17
 -111 1154 -111 1154 -92.5 1169 c 128,-1,18
 -74 1184 -74 1184 -74 1204 c 0,19,20
 -74 1219 -74 1219 -84 1234 c 1,21,-1
 -224 1234 l 1,22,-1
 -241 1267 l 1,23,-1
 -241 1273 l 1,24,-1
 -16 1273 l 1,25,-1
 1 1240 l 1,26,-1
 1 1234 l 1,27,-1
 -53 1234 l 1,28,29
 -43 1219 -43 1219 -38.5 1207.5 c 128,-1,30
 -34 1196 -34 1196 -34 1184 c 0,31,32
 -34 1153 -34 1153 -63 1132 c 1,33,34
 -23 1093 -23 1093 -23 1052 c 0,35,36
 -23 1024 -23 1024 -42.5 1005.5 c 128,-1,37
 -62 987 -62 987 -91 987 c 0,0,1
EndSplineSet
EndChar

StartChar: uniA8EC
Encoding: 43244 43244 20
Width: 0
GlyphClass: 4
Flags: W
AnchorPoint: "Vedic letter" 0 800 mark 0
LayerCount: 2
Fore
SplineSet
-101 974 m 1,0,-1
 -138 996 l 1,1,-1
 -138 1050 l 1,2,3
 -161 1032 -161 1032 -188 1032 c 0,4,5
 -210 1032 -210 1032 -231.5 1043.5 c 128,-1,6
 -253 1055 -253 1055 -267 1075 c 128,-1,7
 -281 1095 -281 1095 -281 1121 c 0,8,9
 -281 1150 -281 1150 -260.5 1170 c 128,-1,10
 -240 1190 -240 1190 -206 1190 c 256,11,12
 -172 1190 -172 1190 -138 1166 c 1,13,-1
 -138 1234 l 1,14,-1
 -283 1234 l 1,15,-1
 -300 1267 l 1,16,-1
 -300 1273 l 1,17,-1
 29 1273 l 1,18,-1
 46 1240 l 1,19,-1
 46 1234 l 1,20,-1
 -95 1234 l 1,21,-1
 -95 1148 l 1,22,23
 -73 1170 -73 1170 -45 1170 c 0,24,25
 -15 1170 -15 1170 6 1146.5 c 128,-1,26
 27 1123 27 1123 27 1094 c 0,27,28
 27 1069 27 1069 20 1049.5 c 128,-1,29
 13 1030 13 1030 -8 1004 c 1,30,-1
 -48 1036 l 1,31,32
 -20 1067 -20 1067 -12 1081.5 c 128,-1,33
 -4 1096 -4 1096 -4 1107 c 0,34,35
 -4 1134 -4 1134 -32 1134 c 0,36,37
 -45 1134 -45 1134 -59.5 1122 c 128,-1,38
 -74 1110 -74 1110 -95 1085 c 1,39,-1
 -95 974 l 1,40,-1
 -101 974 l 1,0,-1
-247 1107 m 0,41,42
 -247 1092 -247 1092 -235 1081.5 c 128,-1,43
 -223 1071 -223 1071 -206 1071 c 0,44,45
 -191 1071 -191 1071 -175.5 1079 c 128,-1,46
 -160 1087 -160 1087 -138 1107 c 1,47,-1
 -138 1138 l 1,48,49
 -148 1143 -148 1143 -160 1146.5 c 128,-1,50
 -172 1150 -172 1150 -187 1150 c 0,51,52
 -209 1150 -209 1150 -228 1139.5 c 128,-1,53
 -247 1129 -247 1129 -247 1107 c 0,41,42
EndSplineSet
EndChar

StartChar: uniA8ED
Encoding: 43245 43245 21
Width: 0
GlyphClass: 4
Flags: W
AnchorPoint: "Vedic letter" 0 800 mark 0
LayerCount: 2
Fore
SplineSet
-30 976 m 1,0,-1
 -66 998 l 1,1,-1
 -66 1120 l 1,2,-1
 -142 1120 l 1,3,4
 -140 1107 -140 1107 -140 1097 c 0,5,6
 -140 1080 -140 1080 -145.5 1074 c 128,-1,7
 -151 1068 -151 1068 -162 1068 c 0,8,9
 -174 1068 -174 1068 -188.5 1077.5 c 128,-1,10
 -203 1087 -203 1087 -213 1102 c 128,-1,11
 -223 1117 -223 1117 -223 1132 c 0,12,13
 -223 1148 -223 1148 -210 1154.5 c 128,-1,14
 -197 1161 -197 1161 -177 1161 c 0,15,16
 -162 1161 -162 1161 -132 1158.5 c 128,-1,17
 -102 1156 -102 1156 -66 1152 c 1,18,-1
 -66 1234 l 1,19,-1
 -225 1234 l 1,20,-1
 -242 1267 l 1,21,-1
 -242 1273 l 1,22,-1
 5 1273 l 1,23,-1
 22 1240 l 1,24,-1
 22 1234 l 1,25,-1
 -24 1234 l 1,26,-1
 -24 976 l 1,27,-1
 -30 976 l 1,0,-1
EndSplineSet
EndChar

StartChar: uniA8EE
Encoding: 43246 43246 22
Width: 0
GlyphClass: 4
Flags: W
AnchorPoint: "Vedic letter" 0 800 mark 0
LayerCount: 2
Fore
SplineSet
-32 976 m 1,0,-1
 -68 998 l 1,1,-1
 -68 1071 l 1,2,3
 -82 1063 -82 1063 -101 1063 c 0,4,5
 -136 1063 -136 1063 -162.5 1088 c 128,-1,6
 -189 1113 -189 1113 -189 1143 c 2,7,-1
 -189 1234 l 1,8,-1
 -223 1234 l 1,9,-1
 -240 1267 l 1,10,-1
 -240 1273 l 1,11,-1
 2 1273 l 1,12,-1
 20 1240 l 1,13,-1
 20 1234 l 1,14,-1
 -26 1234 l 1,15,-1
 -26 976 l 1,16,-1
 -32 976 l 1,0,-1
-147 1126 m 2,17,18
 -147 1098 -147 1098 -123 1098 c 0,19,20
 -110 1098 -110 1098 -96.5 1104.5 c 128,-1,21
 -83 1111 -83 1111 -68 1127 c 1,22,-1
 -68 1234 l 1,23,-1
 -147 1234 l 1,24,-1
 -147 1126 l 2,17,18
EndSplineSet
EndChar

StartChar: uniA8EF
Encoding: 43247 43247 23
Width: 0
GlyphClass: 4
Flags: W
AnchorPoint: "Vedic letter" 0 800 mark 0
LayerCount: 2
Fore
SplineSet
-62 966 m 1,0,1
 -95 993 -95 993 -122.5 1022.5 c 128,-1,2
 -150 1052 -150 1052 -166.5 1079.5 c 128,-1,3
 -183 1107 -183 1107 -183 1126 c 0,4,5
 -183 1152 -183 1152 -155 1152 c 0,6,7
 -140 1152 -140 1152 -124 1143 c 1,8,9
 -113 1162 -113 1162 -113 1186 c 0,10,11
 -113 1209 -113 1209 -119 1234 c 1,12,-1
 -205 1234 l 1,13,-1
 -222 1267 l 1,14,-1
 -222 1273 l 1,15,-1
 -35 1273 l 1,16,-1
 -18 1240 l 1,17,-1
 -18 1234 l 1,18,-1
 -80 1234 l 1,19,20
 -71 1197 -71 1197 -71 1165 c 0,21,22
 -71 1135 -71 1135 -86.5 1115.5 c 128,-1,23
 -102 1096 -102 1096 -131 1092 c 2,24,-1
 -138 1091 l 1,25,26
 -121 1066 -121 1066 -92.5 1042.5 c 128,-1,27
 -64 1019 -64 1019 -30 999 c 1,28,-1
 -62 966 l 1,0,1
EndSplineSet
EndChar

StartChar: uniA8F0
Encoding: 43248 43248 24
Width: 0
GlyphClass: 4
Flags: W
AnchorPoint: "Vedic letter" 0 800 mark 0
LayerCount: 2
Fore
SplineSet
25 976 m 1,0,-1
 -12 998 l 1,1,-1
 -12 1044 l 1,2,3
 -32 1032 -32 1032 -56 1032 c 0,4,5
 -95 1032 -95 1032 -124.5 1059 c 128,-1,6
 -154 1086 -154 1086 -154 1122 c 0,7,8
 -154 1154 -154 1154 -132 1174 c 128,-1,9
 -110 1194 -110 1194 -76 1194 c 0,10,11
 -45 1194 -45 1194 -12 1174 c 1,12,-1
 -12 1234 l 1,13,-1
 -209 1234 l 1,14,-1
 -209 976 l 1,15,-1
 -215 976 l 1,16,-1
 -251 998 l 1,17,-1
 -251 1234 l 1,18,-1
 -280 1234 l 1,19,-1
 -297 1267 l 1,20,-1
 -297 1273 l 1,21,-1
 -244 1273 l 1,22,23
 -256 1285 -256 1285 -263.5 1298.5 c 128,-1,24
 -271 1312 -271 1312 -271 1328 c 0,25,26
 -271 1358 -271 1358 -246 1377.5 c 128,-1,27
 -221 1397 -221 1397 -178 1397 c 0,28,29
 -115 1397 -115 1397 -64 1361 c 128,-1,30
 -13 1325 -13 1325 26 1273 c 1,31,-1
 59 1273 l 1,32,-1
 77 1240 l 1,33,-1
 77 1234 l 1,34,-1
 30 1234 l 1,35,-1
 30 976 l 1,36,-1
 25 976 l 1,0,-1
-230 1308 m 0,37,38
 -230 1298 -230 1298 -225.5 1288.5 c 128,-1,39
 -221 1279 -221 1279 -214 1273 c 1,40,-1
 -6 1273 l 1,41,42
 -36 1307 -36 1307 -73.5 1331 c 128,-1,43
 -111 1355 -111 1355 -161 1355 c 0,44,45
 -194 1355 -194 1355 -212 1342 c 128,-1,46
 -230 1329 -230 1329 -230 1308 c 0,37,38
-119 1108 m 0,47,48
 -119 1092 -119 1092 -106 1081.5 c 128,-1,49
 -93 1071 -93 1071 -75 1071 c 0,50,51
 -60 1071 -60 1071 -45.5 1077 c 128,-1,52
 -31 1083 -31 1083 -12 1098 c 1,53,-1
 -12 1145 l 1,54,55
 -34 1154 -34 1154 -56 1154 c 0,56,57
 -87 1154 -87 1154 -103 1141 c 128,-1,58
 -119 1128 -119 1128 -119 1108 c 0,47,48
EndSplineSet
EndChar

StartChar: uniA8F1
Encoding: 43249 43249 25
Width: 0
GlyphClass: 4
Flags: W
AnchorPoint: "Vedic letter" 0 800 mark 0
LayerCount: 2
Fore
SplineSet
-99 991 m 0,0,1
 -139 991 -139 991 -170.5 1017 c 128,-1,2
 -202 1043 -202 1043 -230 1097 c 1,3,-1
 -206 1109 l 1,4,5
 -186 1074 -186 1074 -164 1053.5 c 128,-1,6
 -142 1033 -142 1033 -117 1033 c 0,7,8
 -100 1033 -100 1033 -89.5 1042 c 128,-1,9
 -79 1051 -79 1051 -79 1067 c 0,10,11
 -79 1089 -79 1089 -95.5 1106 c 128,-1,12
 -112 1123 -112 1123 -133 1140 c 128,-1,13
 -154 1157 -154 1157 -170.5 1175.5 c 128,-1,14
 -187 1194 -187 1194 -187 1219 c 0,15,16
 -187 1246 -187 1246 -166.5 1259.5 c 128,-1,17
 -146 1273 -146 1273 -116 1273 c 2,18,-1
 -58 1273 l 1,19,-1
 -41 1240 l 1,20,-1
 -41 1234 l 1,21,-1
 -101 1234 l 2,22,23
 -116 1234 -116 1234 -126.5 1227.5 c 128,-1,24
 -137 1221 -137 1221 -137 1207 c 0,25,26
 -137 1190 -137 1190 -121 1175 c 128,-1,27
 -105 1160 -105 1160 -83.5 1143 c 128,-1,28
 -62 1126 -62 1126 -46 1105 c 128,-1,29
 -30 1084 -30 1084 -30 1055 c 0,30,31
 -30 1027 -30 1027 -49 1009 c 128,-1,32
 -68 991 -68 991 -99 991 c 0,0,1
EndSplineSet
EndChar

StartChar: uni25CC
Encoding: 9676 9676 26
Width: 596
GlyphClass: 2
Flags: W
AnchorPoint: "Vedic letter" 596 427 basechar 0
AnchorPoint: "+BBEENQQ3BEsEPARPBD0EPQQ+BDUA--18" 512 623 basechar 0
AnchorPoint: "+BBEENQQ3BEsEPARPBD0EPQQ+BDUA--17" 298 -120 basechar 0
AnchorPoint: "+BBEENQQ3BEsEPARPBD0EPQQ+BDUA--16" 492 623 basechar 0
AnchorPoint: "+BBEENQQ3BEsEPARPBD0EPQQ+BDUA--15" 298 0 basechar 0
AnchorPoint: "+BBEENQQ3BEsEPARPBD0EPQQ+BDUA--14" 382 0 basechar 0
LayerCount: 2
Fore
SplineSet
298 488 m 0,0,1
 288 488 288 488 280 496 c 128,-1,2
 272 504 272 504 272 514 c 0,3,4
 272 525 272 525 280 532.5 c 128,-1,5
 288 540 288 540 298 540 c 0,6,7
 309 540 309 540 316.5 532.5 c 128,-1,8
 324 525 324 525 324 514 c 0,9,10
 324 504 324 504 316.5 496 c 128,-1,11
 309 488 309 488 298 488 c 0,0,1
382 470 m 0,12,13
 372 470 372 470 364 478 c 128,-1,14
 356 486 356 486 356 496 c 0,15,16
 356 507 356 507 364 514.5 c 128,-1,17
 372 522 372 522 382 522 c 0,18,19
 393 522 393 522 400.5 514.5 c 128,-1,20
 408 507 408 507 408 496 c 0,21,22
 408 486 408 486 400.5 478 c 128,-1,23
 393 470 393 470 382 470 c 0,12,13
214 470 m 0,24,25
 204 470 204 470 196 478 c 128,-1,26
 188 486 188 486 188 496 c 0,27,28
 188 507 188 507 196 514.5 c 128,-1,29
 204 522 204 522 214 522 c 0,30,31
 225 522 225 522 232.5 514.5 c 128,-1,32
 240 507 240 507 240 496 c 0,33,34
 240 486 240 486 232.5 478 c 128,-1,35
 225 470 225 470 214 470 c 0,24,25
456 423 m 0,36,37
 446 423 446 423 438 431 c 128,-1,38
 430 439 430 439 430 449 c 0,39,40
 430 460 430 460 438 467.5 c 128,-1,41
 446 475 446 475 456 475 c 0,42,43
 467 475 467 475 474.5 467.5 c 128,-1,44
 482 460 482 460 482 449 c 0,45,46
 482 439 482 439 474.5 431 c 128,-1,47
 467 423 467 423 456 423 c 0,36,37
140 423 m 0,48,49
 130 423 130 423 122 431 c 128,-1,50
 114 439 114 439 114 449 c 0,51,52
 114 460 114 460 122 467.5 c 128,-1,53
 130 475 130 475 140 475 c 0,54,55
 151 475 151 475 158.5 467.5 c 128,-1,56
 166 460 166 460 166 449 c 0,57,58
 166 439 166 439 158.5 431 c 128,-1,59
 151 423 151 423 140 423 c 0,48,49
503 349 m 0,60,61
 493 349 493 349 485 357 c 128,-1,62
 477 365 477 365 477 375 c 0,63,64
 477 386 477 386 485 393.5 c 128,-1,65
 493 401 493 401 503 401 c 0,66,67
 514 401 514 401 521.5 393.5 c 128,-1,68
 529 386 529 386 529 375 c 0,69,70
 529 365 529 365 521.5 357 c 128,-1,71
 514 349 514 349 503 349 c 0,60,61
93 349 m 0,72,73
 83 349 83 349 75 357 c 128,-1,74
 67 365 67 365 67 375 c 0,75,76
 67 386 67 386 75 393.5 c 128,-1,77
 83 401 83 401 93 401 c 0,78,79
 104 401 104 401 111.5 393.5 c 128,-1,80
 119 386 119 386 119 375 c 0,81,82
 119 365 119 365 111.5 357 c 128,-1,83
 104 349 104 349 93 349 c 0,72,73
521 265 m 0,84,85
 511 265 511 265 503 273 c 128,-1,86
 495 281 495 281 495 291 c 0,87,88
 495 302 495 302 503 309.5 c 128,-1,89
 511 317 511 317 521 317 c 0,90,91
 532 317 532 317 539.5 309.5 c 128,-1,92
 547 302 547 302 547 291 c 0,93,94
 547 281 547 281 539.5 273 c 128,-1,95
 532 265 532 265 521 265 c 0,84,85
75 265 m 0,96,97
 65 265 65 265 57 273 c 128,-1,98
 49 281 49 281 49 291 c 0,99,100
 49 302 49 302 57 309.5 c 128,-1,101
 65 317 65 317 75 317 c 0,102,103
 86 317 86 317 93.5 309.5 c 128,-1,104
 101 302 101 302 101 291 c 0,105,106
 101 281 101 281 93.5 273 c 128,-1,107
 86 265 86 265 75 265 c 0,96,97
503 181 m 0,108,109
 493 181 493 181 485 189 c 128,-1,110
 477 197 477 197 477 207 c 0,111,112
 477 218 477 218 485 225.5 c 128,-1,113
 493 233 493 233 503 233 c 0,114,115
 514 233 514 233 521.5 225.5 c 128,-1,116
 529 218 529 218 529 207 c 0,117,118
 529 197 529 197 521.5 189 c 128,-1,119
 514 181 514 181 503 181 c 0,108,109
93 181 m 0,120,121
 83 181 83 181 75 189 c 128,-1,122
 67 197 67 197 67 207 c 0,123,124
 67 218 67 218 75 225.5 c 128,-1,125
 83 233 83 233 93 233 c 0,126,127
 104 233 104 233 111.5 225.5 c 128,-1,128
 119 218 119 218 119 207 c 0,129,130
 119 197 119 197 111.5 189 c 128,-1,131
 104 181 104 181 93 181 c 0,120,121
456 107 m 0,132,133
 446 107 446 107 438 115 c 128,-1,134
 430 123 430 123 430 133 c 0,135,136
 430 144 430 144 438 151.5 c 128,-1,137
 446 159 446 159 456 159 c 0,138,139
 467 159 467 159 474.5 151.5 c 128,-1,140
 482 144 482 144 482 133 c 0,141,142
 482 123 482 123 474.5 115 c 128,-1,143
 467 107 467 107 456 107 c 0,132,133
140 107 m 0,144,145
 130 107 130 107 122 115 c 128,-1,146
 114 123 114 123 114 133 c 0,147,148
 114 144 114 144 122 151.5 c 128,-1,149
 130 159 130 159 140 159 c 0,150,151
 151 159 151 159 158.5 151.5 c 128,-1,152
 166 144 166 144 166 133 c 0,153,154
 166 123 166 123 158.5 115 c 128,-1,155
 151 107 151 107 140 107 c 0,144,145
382 60 m 0,156,157
 372 60 372 60 364 68 c 128,-1,158
 356 76 356 76 356 86 c 0,159,160
 356 97 356 97 364 104.5 c 128,-1,161
 372 112 372 112 382 112 c 0,162,163
 393 112 393 112 400.5 104.5 c 128,-1,164
 408 97 408 97 408 86 c 0,165,166
 408 76 408 76 400.5 68 c 128,-1,167
 393 60 393 60 382 60 c 0,156,157
214 60 m 0,168,169
 204 60 204 60 196 68 c 128,-1,170
 188 76 188 76 188 86 c 0,171,172
 188 97 188 97 196 104.5 c 128,-1,173
 204 112 204 112 214 112 c 0,174,175
 225 112 225 112 232.5 104.5 c 128,-1,176
 240 97 240 97 240 86 c 0,177,178
 240 76 240 76 232.5 68 c 128,-1,179
 225 60 225 60 214 60 c 0,168,169
298 42 m 0,180,181
 288 42 288 42 280 50 c 128,-1,182
 272 58 272 58 272 68 c 0,183,184
 272 79 272 79 280 86.5 c 128,-1,185
 288 94 288 94 298 94 c 0,186,187
 309 94 309 94 316.5 86.5 c 128,-1,188
 324 79 324 79 324 68 c 0,189,190
 324 58 324 58 316.5 50 c 128,-1,191
 309 42 309 42 298 42 c 0,180,181
EndSplineSet
EndChar
